<svg width="21" height="21" viewBox="0 0 21 21" fill="none" xmlns="http://www.w3.org/2000/svg">
<path d="M18.2538 19.3616C18.3986 19.3602 18.5417 19.3301 18.6748 19.2731C18.8079 19.216 18.9284 19.1332 19.0292 19.0293C19.134 18.9292 19.2175 18.8088 19.2745 18.6756C19.3315 18.5423 19.3608 18.3989 19.3608 18.2539C19.3608 18.109 19.3315 17.9655 19.2745 17.8322C19.2175 17.699 19.134 17.5786 19.0292 17.4785L10.2077 8.65391C10.1745 8.61883 10.1345 8.59088 10.0901 8.57179C10.0457 8.55269 9.99792 8.54285 9.94961 8.54285C9.9013 8.54285 9.8535 8.55269 9.80913 8.57179C9.76476 8.59088 9.72474 8.61883 9.69153 8.65391L8.65692 9.68775C8.62211 9.7212 8.59442 9.76134 8.5755 9.80575C8.55658 9.85016 8.54683 9.89794 8.54683 9.94621C8.54683 9.99449 8.55658 10.0423 8.5755 10.0867C8.59442 10.1311 8.62211 10.1712 8.65692 10.2047L17.4785 19.0293C17.5793 19.1332 17.6998 19.216 17.8329 19.2731C17.966 19.3301 18.109 19.3602 18.2538 19.3616ZM4.61076 15.3278C4.65469 15.3281 4.69769 15.3151 4.73399 15.2903C4.77029 15.2656 4.79815 15.2303 4.81384 15.1893C5.00931 14.574 5.34975 14.0147 5.80651 13.5585C6.26327 13.1023 6.82296 12.7625 7.43845 12.5678C7.47914 12.5516 7.51405 12.5236 7.53864 12.4874C7.56324 12.4512 7.57639 12.4084 7.57639 12.3647C7.57639 12.3209 7.56324 12.2781 7.53864 12.2419C7.51405 12.2057 7.47914 12.1777 7.43845 12.1616C6.82366 11.9666 6.26471 11.6267 5.80864 11.1706C5.35256 10.7146 5.01271 10.1556 4.81769 9.54083C4.80155 9.50014 4.77356 9.46524 4.73735 9.44064C4.70114 9.41605 4.65838 9.4029 4.61461 9.4029C4.57084 9.4029 4.52807 9.41605 4.49186 9.44064C4.45565 9.46524 4.42767 9.50014 4.41153 9.54083C4.21626 10.1556 3.87623 10.7145 3.42004 11.1706C2.96385 11.6266 2.40484 11.9665 1.78999 12.1616C1.75189 12.1703 1.71775 12.1914 1.69296 12.2216C1.66817 12.2518 1.65414 12.2895 1.65307 12.3285C1.64712 12.3778 1.65722 12.4277 1.68189 12.4708C1.70656 12.5139 1.74447 12.5479 1.78999 12.5678C2.40446 12.7639 2.96289 13.1047 3.41838 13.5614C3.87388 14.0181 4.21314 14.5774 4.40769 15.1924C4.42387 15.2328 4.45194 15.2674 4.4882 15.2916C4.52446 15.3158 4.56719 15.3284 4.61076 15.3278ZM7.36153 8.76468C7.4098 8.76424 7.4575 8.75422 7.50187 8.73521C7.54624 8.71619 7.58639 8.68856 7.61999 8.65391L8.65384 7.62006C8.68892 7.58685 8.71686 7.54684 8.73596 7.50246C8.75505 7.45809 8.7649 7.41029 8.7649 7.36198C8.7649 7.31368 8.75505 7.26588 8.73596 7.2215C8.71686 7.17713 8.68892 7.13712 8.65384 7.10391L7.47307 5.92237C7.42284 5.87025 7.36262 5.8288 7.29601 5.80049C7.22939 5.77218 7.15776 5.75758 7.08538 5.75758C7.013 5.75758 6.94136 5.77218 6.87475 5.80049C6.80814 5.8288 6.74792 5.87025 6.69769 5.92237L5.9223 6.69775C5.87019 6.74798 5.82874 6.8082 5.80042 6.87482C5.77211 6.94143 5.75752 7.01306 5.75752 7.08544C5.75752 7.15782 5.77211 7.22946 5.80042 7.29607C5.82874 7.36269 5.87019 7.42291 5.9223 7.47314L7.10307 8.65391C7.13675 8.68846 7.17692 8.71603 7.22127 8.73503C7.26562 8.75404 7.31328 8.76411 7.36153 8.76468ZM13.0846 8.30314C13.1345 8.30314 13.1831 8.28694 13.2231 8.25698C13.263 8.22702 13.2922 8.18492 13.3061 8.13698C13.5182 7.43998 13.8986 6.80592 14.4138 6.29076C14.9289 5.7756 15.563 5.3952 16.26 5.18314C16.3026 5.16457 16.3387 5.13356 16.3634 5.09417C16.3881 5.05477 16.4003 5.00883 16.3985 4.96237C16.4006 4.91565 16.3885 4.86937 16.3638 4.82967C16.3391 4.78997 16.3029 4.75872 16.26 4.74006C15.563 4.528 14.9289 4.1476 14.4138 3.63244C13.8986 3.11728 13.5182 2.48321 13.3061 1.78621C13.2922 1.73828 13.263 1.69617 13.2231 1.66621C13.1831 1.63625 13.1345 1.62006 13.0846 1.62006C13.0347 1.62006 12.9861 1.63625 12.9461 1.66621C12.9062 1.69617 12.8771 1.73828 12.8631 1.78621C12.651 2.48301 12.2707 3.1169 11.7557 3.63192C11.2407 4.14694 10.6068 4.52726 9.90999 4.73929C9.86206 4.75327 9.81995 4.78242 9.78999 4.82237C9.76003 4.86231 9.74384 4.9109 9.74384 4.96083C9.74384 5.01076 9.76003 5.05935 9.78999 5.09929C9.81995 5.13924 9.86206 5.16839 9.90999 5.18237C10.6069 5.39448 11.2408 5.77491 11.7559 6.29007C12.2709 6.80523 12.6511 7.43927 12.8631 8.13621C12.8769 8.18429 12.906 8.22657 12.946 8.25668C12.9859 8.28678 13.0346 8.30309 13.0846 8.30314ZM3.85384 6.07237C3.88741 6.07357 3.92038 6.06323 3.94726 6.04308C3.97413 6.02292 3.99329 5.99416 4.00153 5.9616C4.13714 5.4974 4.38751 5.07485 4.72953 4.73296C5.07156 4.39107 5.4942 4.14087 5.95845 4.00544C5.99041 3.99612 6.01848 3.97669 6.03845 3.95006C6.05843 3.92343 6.06922 3.89104 6.06922 3.85775C6.06922 3.82446 6.05843 3.79207 6.03845 3.76544C6.01848 3.73881 5.99041 3.71938 5.95845 3.71006C5.49377 3.57402 5.07087 3.32305 4.72883 2.98034C4.3868 2.63763 4.13666 2.21424 4.00153 1.74929C3.992 1.71764 3.97252 1.6899 3.94599 1.67018C3.91946 1.65047 3.88728 1.63982 3.85422 1.63982C3.82117 1.63982 3.78899 1.65047 3.76246 1.67018C3.73593 1.6899 3.71645 1.71764 3.70692 1.74929C3.57088 2.21398 3.31991 2.63688 2.9772 2.97891C2.63449 3.32095 2.2111 3.57109 1.74615 3.70621C1.71419 3.71553 1.68612 3.73497 1.66615 3.7616C1.64618 3.78823 1.63538 3.82062 1.63538 3.85391C1.63538 3.88719 1.64618 3.91958 1.66615 3.94621C1.68612 3.97284 1.71419 3.99228 1.74615 4.0016C2.21141 4.13693 2.63498 4.38751 2.97761 4.73014C3.32023 5.07276 3.57082 5.49634 3.70615 5.9616C3.71498 5.99359 3.73439 6.02165 3.76121 6.04121C3.78803 6.06076 3.82068 6.07066 3.85384 6.06929V6.07237Z" fill="#E3E3E3"/>
</svg>
