<svg width="26" height="27" viewBox="0 0 26 27" fill="none" xmlns="http://www.w3.org/2000/svg">
<path d="M12.9219 15.3093C9.12595 15.3093 6.05795 12.2153 6.05795 8.4453C6.05795 4.6753 9.12595 1.5553 12.9219 1.5553C16.7179 1.5553 19.7859 4.6493 19.7859 8.4193C19.7859 12.1893 16.7179 15.3093 12.9219 15.3093ZM12.9219 3.5313C10.2179 3.5313 8.03394 5.7153 8.03394 8.4193C8.03394 11.1233 10.2439 13.3333 12.9219 13.3333C15.6259 13.3333 17.8099 11.1493 17.8099 8.4453C17.8099 5.7413 15.6259 3.5313 12.9219 3.5313ZM19.6039 25.4493H6.26594C3.79595 25.4493 1.79395 23.4473 1.79395 20.9773C1.79395 18.5073 3.79595 16.5053 6.26594 16.5053H19.6039C22.0739 16.5053 24.0759 18.5073 24.0759 20.9773C24.0759 23.4473 22.0739 25.4493 19.6039 25.4493ZM6.26594 18.4033C4.83595 18.4033 3.66595 19.5733 3.66595 21.0033C3.66595 22.4333 4.83595 23.6033 6.26594 23.6033H19.6039C21.0339 23.6033 22.2039 22.4333 22.2039 21.0033C22.2039 19.5733 21.0339 18.4033 19.6039 18.4033H6.26594Z" fill="#E3E3E3"/>
<path d="M19.2139 21.5753H16.8479C16.3019 21.5753 15.8599 21.1333 15.8599 20.5873C15.8599 20.0413 16.3019 19.5993 16.8479 19.5993H19.2139C19.7599 19.5993 20.2019 20.0413 20.2019 20.5873C20.2019 21.1333 19.7599 21.5753 19.2139 21.5753Z" fill="#7B57E0"/>
</svg>
