<svg width="42" height="43" viewBox="0 0 42 43" fill="none" xmlns="http://www.w3.org/2000/svg">
<path d="M21.0001 19.6519L30.5761 10.0759C30.8212 9.83088 31.1535 9.69321 31.5001 9.69321C31.8467 9.69321 32.179 9.83088 32.4241 10.0759C32.6692 10.321 32.8068 10.6534 32.8068 10.9999C32.8068 11.3465 32.6692 11.6789 32.4241 11.9239L22.8481 21.4999L32.4241 31.0759C32.6692 31.321 32.8068 31.6534 32.8068 31.9999C32.8068 32.3465 32.6692 32.6789 32.4241 32.9239C32.179 33.169 31.8467 33.3067 31.5001 33.3067C31.1535 33.3067 30.8212 33.169 30.5761 32.9239L21.0001 23.3479L11.4241 32.9239C11.179 33.169 10.8467 33.3067 10.5001 33.3067C10.1535 33.3067 9.82115 33.169 9.57609 32.9239C9.33103 32.6789 9.19336 32.3465 9.19336 31.9999C9.19336 31.6534 9.33103 31.321 9.57609 31.0759L19.1521 21.4999L9.57609 11.9239C9.33103 11.6789 9.19336 11.3465 9.19336 10.9999C9.19336 10.6534 9.33103 10.321 9.57609 10.0759C9.82115 9.83088 10.1535 9.69321 10.5001 9.69321C10.8467 9.69321 11.179 9.83088 11.4241 10.0759L21.0001 19.6519Z" fill="#E3E3E3"/>
</svg>
