<svg width="20" height="21" viewBox="0 0 20 21" fill="none" xmlns="http://www.w3.org/2000/svg">
<path d="M15 7.83331C14.625 7.83331 14.375 8.08331 14.375 8.45831V15.8333C14.375 16.3333 14 16.5833 13.625 16.5833H6.375C5.875 16.5833 5.625 16.2083 5.625 15.8333V8.45831C5.625 8.08331 5.375 7.83331 5 7.83331C4.625 7.83331 4.375 8.08331 4.375 8.45831V15.8333C4.375 16.9583 5.25 17.8333 6.375 17.8333H13.5C14.625 17.8333 15.5 16.9583 15.5 15.8333V8.45831C15.625 8.08331 15.375 7.83331 15 7.83331ZM9 14.7083V8.45831C9 8.08331 8.75 7.83331 8.5 7.83331C8.25 7.83331 7.75 8.08331 7.75 8.45831V14.7083C7.75 15.0833 8 15.3333 8.375 15.3333C8.75 15.3333 9 15.0833 9 14.7083ZM12.25 14.7083V8.45831C12.25 8.08331 11.875 7.83331 11.5 7.83331C11.125 7.83331 11 8.08331 11 8.45831V14.7083C11 15.0833 11.25 15.3333 11.5 15.3333C11.75 15.3333 12.25 15.0833 12.25 14.7083ZM16.25 5.33331H13.125V4.45831C13.125 3.58331 12.375 2.83331 11.5 2.83331H8.5C7.625 2.83331 6.875 3.58331 6.875 4.45831V5.33331H3.75C3.375 5.33331 3.125 5.58331 3.125 5.95831C3.125 6.33331 3.375 6.58331 3.75 6.58331H16.25C16.625 6.58331 16.875 6.33331 16.875 5.95831C16.875 5.58331 16.625 5.33331 16.25 5.33331ZM8.125 4.45831C8.125 4.20831 8.25 4.08331 8.5 4.08331H11.5C11.75 4.08331 11.875 4.20831 11.875 4.45831V5.33331H8.125V4.45831Z" fill="#B8C0CC"/>
</svg>
