<svg width="32" height="33" viewBox="0 0 32 33" fill="none" xmlns="http://www.w3.org/2000/svg">
<path d="M12 28.6907V18.8241C12 18.0773 12 17.704 12.1453 17.4188C12.2732 17.1679 12.4771 16.9639 12.728 16.8361C13.0132 16.6907 13.3866 16.6907 14.1333 16.6907H17.8667C18.6134 16.6907 18.9868 16.6907 19.272 16.8361C19.5229 16.9639 19.7268 17.1679 19.8547 17.4188C20 17.704 20 18.0773 20 18.8241V28.6907M14.6903 4.3761L5.64719 11.4096C5.04269 11.8798 4.74045 12.1148 4.5227 12.4092C4.32982 12.67 4.18614 12.9638 4.0987 13.2762C4 13.6288 4 14.0117 4 14.7775V24.4241C4 25.9176 4 26.6643 4.29065 27.2347C4.54631 27.7365 4.95426 28.1444 5.45603 28.4001C6.02646 28.6907 6.77319 28.6907 8.26667 28.6907H23.7333C25.2268 28.6907 25.9735 28.6907 26.544 28.4001C27.0457 28.1444 27.4537 27.7365 27.7094 27.2347C28 26.6643 28 25.9176 28 24.4241V14.7775C28 14.0117 28 13.6288 27.9013 13.2762C27.8139 12.9638 27.6702 12.67 27.4773 12.4092C27.2596 12.1148 26.9573 11.8798 26.3528 11.4096L17.3097 4.3761C16.8413 4.01176 16.6071 3.82959 16.3485 3.75957C16.1203 3.69778 15.8797 3.69778 15.6515 3.75957C15.3929 3.82959 15.1587 4.01176 14.6903 4.3761Z" stroke="#B8C0CC" stroke-width="2" stroke-linecap="round" stroke-linejoin="round"/>
</svg>
