<svg width="32" height="32" viewBox="0 0 32 32" fill="none" xmlns="http://www.w3.org/2000/svg">
<path d="M16.0166 18.4428C17.3672 18.4428 18.462 17.3491 18.462 16C18.462 14.6509 17.3672 13.5573 16.0166 13.5573C14.666 13.5573 13.5712 14.6509 13.5712 16C13.5712 17.3491 14.666 18.4428 16.0166 18.4428Z" fill="white"/>
<path d="M27.5712 18.4428C28.9218 18.4428 30.0166 17.3491 30.0166 16C30.0166 14.6509 28.9218 13.5573 27.5712 13.5573C26.2206 13.5573 25.1258 14.6509 25.1258 16C25.1258 17.3491 26.2206 18.4428 27.5712 18.4428Z" fill="white"/>
<path d="M4.46201 18.4428C5.81257 18.4428 6.90742 17.3491 6.90742 16C6.90742 14.6509 5.81257 13.5573 4.46201 13.5573C3.11145 13.5573 2.0166 14.6509 2.0166 16C2.0166 17.3491 3.11145 18.4428 4.46201 18.4428Z" fill="white"/>
</svg>
