<svg width="100" height="101" viewBox="0 0 100 101" fill="none" xmlns="http://www.w3.org/2000/svg">
<path d="M60.8142 16.2857L60.8903 16.2928L62.6761 16.4928L64.4237 16.7214C64.9999 16.8024 65.5713 16.8881 66.1332 16.9762L67.7999 17.2571C69.1737 17.5024 70.4999 17.7762 71.7761 18.0738L73.2856 18.4405L74.0189 18.6333L75.4499 19.0381L76.1475 19.2452L77.4951 19.6809C84.9618 22.2 89.7022 25.719 89.9903 29.6285L90.0046 30.0095V70.4857C90.0046 74.5452 85.2046 78.2119 77.4951 80.8119L76.1475 81.2476L75.4499 81.4571L74.0213 81.8595L73.2832 82.05L71.7784 82.4214C70.4999 82.7166 69.1737 82.9905 67.8022 83.2357L66.1332 83.5166C65.5642 83.6069 64.9943 83.6918 64.4237 83.7714L62.6761 84L60.8903 84.2L59.0713 84.3714C56.5494 84.5845 54.0209 84.7115 51.4903 84.7524L49.5284 84.7714C46.3433 84.7732 43.1594 84.6397 39.9856 84.3714L38.1665 84.2L36.3808 84L34.6332 83.7714C34.0626 83.6918 33.4927 83.6069 32.9237 83.5166L31.257 83.2357C29.9248 82.9985 28.599 82.7269 27.2808 82.4214L25.7713 82.0524L25.038 81.8595L23.607 81.4547L22.9094 81.2476L21.5618 80.8119C14.0737 78.2857 9.32844 74.7547 9.06177 70.8309L9.05225 70.4857V30.0095C9.05225 25.9476 13.8522 22.2833 21.5618 19.6809L22.9094 19.2452L23.607 19.0357L25.0356 18.6333L25.7737 18.4428L27.2784 18.0738C28.557 17.7762 29.8832 17.5024 31.2546 17.2571L32.9237 16.9762C33.4856 16.8857 34.057 16.8024 34.6332 16.7214L36.3808 16.4928L38.1665 16.2928C38.3862 16.2718 38.6079 16.2944 38.8189 16.3591C39.0298 16.4239 39.226 16.5296 39.396 16.6703C39.5661 16.8109 39.7068 16.9837 39.81 17.1788C39.9132 17.3739 39.9769 17.5874 39.9975 17.8071L40.0022 17.8857V36.7262C43.0594 37.0047 46.257 37.1524 49.5284 37.1524C52.7999 37.1524 55.9975 37.0047 59.0546 36.7238V17.969C59.0546 17.0405 59.8046 16.2881 60.7332 16.2881H60.8118L60.8142 16.2857ZM82.8665 38.1119C81.2927 38.9166 79.4927 39.6619 77.4951 40.3357L76.1475 40.7714L75.4499 40.9809L74.0213 41.3833L73.2832 41.5738L71.7784 41.9452C70.4999 42.2405 69.1737 42.5143 67.8022 42.7595L66.1332 43.0405C65.5642 43.1307 64.9943 43.2156 64.4237 43.2952L62.6761 43.5238L60.8903 43.7238L59.0713 43.8952C55.8974 44.1636 52.7136 44.297 49.5284 44.2952C46.3433 44.297 43.1594 44.1636 39.9856 43.8952L38.1665 43.7238L36.3808 43.5238L34.6332 43.2952C34.0626 43.2156 33.4927 43.1307 32.9237 43.0405L31.257 42.7595C29.9248 42.5223 28.599 42.2508 27.2808 41.9452L25.7713 41.5762L25.038 41.3833L23.607 40.9785L22.9094 40.7714L21.5618 40.3357C19.7203 39.727 17.9259 38.9846 16.1927 38.1143L16.1951 69.9714L16.2951 70.0833L16.6142 70.3928L16.957 70.6809C18.3332 71.7762 20.5999 72.9238 23.5618 73.9476C30.2761 76.2643 39.557 77.6285 49.5284 77.6285C59.6451 77.6285 69.0475 76.2238 75.7713 73.85C78.7237 72.8095 80.9451 71.6476 82.2475 70.5619L82.5499 70.2952L82.6737 70.1762L82.8618 69.969L82.8665 38.1119ZM63.4903 49.9595L68.5403 55.0095L55.0713 68.4762L50.0237 73.5309L44.9713 68.4785L43.288 66.7952L36.5522 73.5309L31.5022 68.4785L43.288 56.6928L50.0213 63.4262L63.4903 49.9595ZM34.0522 47.9524C34.5213 47.9523 34.9858 48.0446 35.4192 48.224C35.8525 48.4035 36.2463 48.6665 36.578 48.9982C36.9097 49.3298 37.1728 49.7236 37.3524 50.1569C37.5319 50.5903 37.6243 51.0547 37.6243 51.5238C37.6243 51.9928 37.5319 52.4573 37.3524 52.8906C37.1728 53.324 36.9097 53.7177 36.578 54.0494C36.2463 54.381 35.8525 54.6441 35.4192 54.8235C34.9858 55.003 34.5213 55.0953 34.0522 55.0952C33.1051 55.0951 32.1969 54.7187 31.5272 54.049C30.8576 53.3792 30.4814 52.4709 30.4814 51.5238C30.4814 50.5767 30.8576 49.6684 31.5272 48.9986C32.1969 48.3289 33.1051 47.9525 34.0522 47.9524ZM32.8618 24.2262C29.3022 24.8452 26.0641 25.6619 23.2856 26.6428C20.5808 27.5952 18.488 28.6524 17.1546 29.6595L16.7213 30.0095L16.8094 30.0857C18.0046 31.0809 19.9713 32.1405 22.5618 33.1095L23.2856 33.3738C26.0641 34.3547 29.3022 35.1714 32.8594 35.7905V24.2262H32.8618ZM66.1975 24.2262V35.7905C69.7546 35.1714 72.9927 34.3547 75.7713 33.3738C78.4761 32.4214 80.5689 31.3643 81.9022 30.3571L82.2475 30.0857L82.3332 30.0095L82.2475 29.9333C81.0522 28.9333 79.0856 27.8762 76.4951 26.9047L75.7713 26.6428C72.9927 25.6619 69.7546 24.8452 66.1975 24.2262Z" fill="#E3E3E3"/>
</svg>
