<svg width="32" height="33" viewBox="0 0 32 33" fill="none" xmlns="http://www.w3.org/2000/svg">
<path d="M27.3333 10.4296L16 16.7259M16 16.7259L4.66662 10.4296M16 16.7259L16 29.3926M28 22.1373V11.3145C28 10.8576 28 10.6292 27.9327 10.4255C27.8731 10.2452 27.7758 10.0798 27.6472 9.9402C27.5018 9.78242 27.3021 9.67149 26.9027 9.44962L17.036 3.96813C16.6579 3.75806 16.4688 3.65302 16.2686 3.61184C16.0914 3.57539 15.9086 3.57539 15.7314 3.61184C15.5312 3.65302 15.3421 3.75806 14.964 3.96814L5.09729 9.44962C4.69793 9.67149 4.49825 9.78242 4.35284 9.94021C4.22421 10.0798 4.12686 10.2452 4.06731 10.4255C4 10.6292 4 10.8576 4 11.3145V22.1373C4 22.5942 4 22.8226 4.06731 23.0263C4.12686 23.2066 4.22421 23.372 4.35284 23.5116C4.49825 23.6694 4.69793 23.7803 5.0973 24.0022L14.964 29.4836C15.3421 29.6937 15.5312 29.7988 15.7314 29.8399C15.9086 29.8764 16.0914 29.8764 16.2686 29.8399C16.4688 29.7988 16.6579 29.6937 17.036 29.4836L26.9027 24.0022C27.3021 23.7803 27.5018 23.6694 27.6472 23.5116C27.7758 23.372 27.8731 23.2066 27.9327 23.0263C28 22.8226 28 22.5942 28 22.1373Z" stroke="#B8C0CC" stroke-width="2" stroke-linecap="round" stroke-linejoin="round"/>
</svg>
