<svg width="20" height="21" viewBox="0 0 20 21" fill="none" xmlns="http://www.w3.org/2000/svg">
<path d="M6.86719 2.11456C5.95312 2.11456 5.20703 2.88605 5.20703 3.8255C5.20703 4.76691 5.95508 5.53644 6.86719 5.53644C7.78125 5.53644 8.5293 4.76495 8.5293 3.8255C8.5293 2.88409 7.79492 2.11456 6.86719 2.11456ZM13.541 5.53644C14.4551 5.53644 15.2012 4.76495 15.2012 3.8255C15.2012 2.88409 14.4531 2.11456 13.541 2.11456C12.627 2.11456 11.8789 2.88605 11.8789 3.8255C11.8789 4.76691 12.6133 5.53644 13.541 5.53644ZM6.86719 8.97198C5.95312 8.97198 5.20703 9.74347 5.20703 10.6829C5.20703 11.6243 5.95508 12.3939 6.86719 12.3939C7.78125 12.3939 8.5293 11.6224 8.5293 10.6829C8.5293 9.74152 7.79492 8.97198 6.86719 8.97198ZM13.541 8.97198C12.627 8.97198 11.8789 9.74347 11.8789 10.6829C11.8789 11.6243 12.627 12.3939 13.541 12.3939C14.4551 12.3939 15.2012 11.6224 15.2012 10.6829C15.2031 9.74152 14.4531 8.97198 13.541 8.97198ZM6.86719 15.8294C5.95312 15.8294 5.20703 16.6009 5.20703 17.5403C5.20703 18.4818 5.95508 19.2513 6.86719 19.2513C7.78125 19.2513 8.5293 18.4798 8.5293 17.5403C8.5293 16.5989 7.79492 15.8294 6.86719 15.8294ZM13.541 15.8294C12.627 15.8294 11.8789 16.6009 11.8789 17.5403C11.8789 18.4818 12.627 19.2513 13.541 19.2513C14.4551 19.2513 15.2012 18.4798 15.2012 17.5403C15.2031 16.5989 14.4531 15.8294 13.541 15.8294Z" fill="#B8C0CC"/>
</svg>
