<svg width="18" height="19" viewBox="0 0 18 19" fill="none" xmlns="http://www.w3.org/2000/svg">
<path fill-rule="evenodd" clip-rule="evenodd" d="M8.99922 2.50833C5.22988 2.50833 2.17422 5.56398 2.17422 9.33333C2.17422 13.1027 5.22988 16.1583 8.99922 16.1583C12.7686 16.1583 15.8242 13.1027 15.8242 9.33333C15.8242 5.56398 12.7686 2.50833 8.99922 2.50833ZM0.824219 9.33333C0.824219 4.8184 4.48429 1.15833 8.99922 1.15833C13.5141 1.15833 17.1742 4.8184 17.1742 9.33333C17.1742 13.8483 13.5141 17.5083 8.99922 17.5083C4.48429 17.5083 0.824219 13.8483 0.824219 9.33333ZM12.5906 9.16774C12.9596 9.221 13.2155 9.56328 13.1623 9.93225C13.0384 10.7905 12.6563 11.6409 11.9815 12.3157L11.9802 12.3169C10.4952 13.7939 8.18499 13.9432 6.53909 12.7597V13.2183C6.53909 13.5911 6.23688 13.8933 5.86409 13.8933C5.49129 13.8933 5.18909 13.5911 5.18909 13.2183V11.2158C5.18909 10.843 5.49129 10.5408 5.86409 10.5408H5.99602C6.00271 10.5407 6.0094 10.5407 6.01609 10.5408H7.86657C8.23937 10.5408 8.54157 10.843 8.54157 11.2158C8.54157 11.5886 8.23937 11.8908 7.86657 11.8908H7.702C8.77582 12.4338 10.1243 12.2582 11.0275 11.3604C11.4774 10.9103 11.74 10.3359 11.8261 9.7394C11.8794 9.37043 12.2216 9.11449 12.5906 9.16774ZM11.9814 8.12581H10.1316C9.75882 8.12581 9.45662 7.8236 9.45662 7.45081C9.45662 7.07802 9.75882 6.77581 10.1316 6.77581H10.293C9.21446 6.23207 7.86722 6.40984 6.97148 7.30559C6.52033 7.75674 6.25841 8.32413 6.17239 8.92629C6.11967 9.29533 5.77776 9.55176 5.40872 9.49904C5.03967 9.44632 4.78324 9.10441 4.83596 8.73537C4.95994 7.86752 5.34303 7.02485 6.01688 6.351C7.49751 4.87037 9.80887 4.72448 11.4591 5.90831V5.44832C11.4591 5.07553 11.7613 4.77332 12.1341 4.77332C12.5069 4.77332 12.8091 5.07553 12.8091 5.44832V7.45081C12.8091 7.8236 12.5069 8.12581 12.1341 8.12581H12.0032C11.996 8.12593 11.9887 8.12593 11.9814 8.12581Z" fill="#E3E3E3"/>
</svg>
