<svg width="18" height="19" viewBox="0 0 18 19" fill="none" xmlns="http://www.w3.org/2000/svg">
<path d="M5.871 2.29503C5.871 1.86261 5.51943 1.51456 5.09053 1.51456C4.66162 1.51456 4.31006 1.86613 4.31006 2.29503V3.85949H1.96162C1.5292 3.85949 1.18115 4.21105 1.18115 4.63996C1.18115 5.06886 1.53271 5.42042 1.96162 5.42042H12.9128V12.4622H14.4772V4.63996C14.4772 4.20753 14.1257 3.85949 13.6968 3.85949H5.871V2.29503ZM4.30654 6.20441V14.0267C4.30654 14.4591 4.65811 14.8071 5.08701 14.8071H12.9093V16.3716C12.9093 16.804 13.2608 17.1521 13.6897 17.1521C14.1187 17.1521 14.4702 16.8005 14.4702 16.3716V14.8071H16.0347C16.4671 14.8071 16.8151 14.4556 16.8151 14.0267C16.8151 13.5978 16.4636 13.2462 16.0347 13.2462H5.871V6.20441H4.30654Z" fill="#E3E3E3"/>
</svg>
