<svg width="32" height="33" viewBox="0 0 32 33" fill="none" xmlns="http://www.w3.org/2000/svg">
<path fill-rule="evenodd" clip-rule="evenodd" d="M27.7422 11.0945L26.9123 9.65433C26.2102 8.43577 24.6543 8.0154 23.434 8.71459V8.71459C22.8532 9.05676 22.1601 9.15384 21.5076 8.98442C20.8551 8.815 20.2968 8.39299 19.9558 7.81147C19.7364 7.44184 19.6185 7.02083 19.614 6.59102V6.59102C19.6338 5.90193 19.3739 5.23417 18.8933 4.73986C18.4128 4.24555 17.7527 3.96679 17.0633 3.96707H15.3913C14.7159 3.96706 14.0684 4.23619 13.592 4.7149C13.1156 5.1936 12.8495 5.84243 12.8528 6.5178V6.5178C12.8328 7.9122 11.6966 9.03205 10.3021 9.03191C9.87226 9.02744 9.45126 8.90956 9.08163 8.69018V8.69018C7.8614 7.99099 6.30546 8.41136 5.60336 9.62992L4.71244 11.0945C4.01119 12.3115 4.42585 13.8664 5.63998 14.5727V14.5727C6.42918 15.0284 6.91535 15.8704 6.91535 16.7817C6.91535 17.693 6.42918 18.5351 5.63998 18.9907V18.9907C4.42739 19.6922 4.01228 21.2434 4.71244 22.4568V22.4568L5.55455 23.9091C5.88351 24.5027 6.43545 24.9407 7.08824 25.1262C7.74102 25.3118 8.44083 25.2295 9.03281 24.8977V24.8977C9.61475 24.5581 10.3082 24.4651 10.9591 24.6392C11.61 24.8134 12.1643 25.2404 12.4989 25.8252C12.7182 26.1948 12.8361 26.6158 12.8406 27.0456V27.0456C12.8406 28.4544 13.9826 29.5964 15.3913 29.5964H17.0633C18.4673 29.5964 19.6073 28.4618 19.614 27.0578V27.0578C19.6108 26.3804 19.8785 25.7297 20.3575 25.2506C20.8366 24.7715 21.4873 24.5039 22.1648 24.5071C22.5935 24.5186 23.0128 24.636 23.3852 24.8488V24.8488C24.6023 25.5501 26.1572 25.1354 26.8635 23.9213V23.9213L27.7422 22.4568C28.0823 21.873 28.1757 21.1777 28.0016 20.5248C27.8275 19.872 27.4003 19.3154 26.8147 18.9785V18.9785C26.229 18.6416 25.8018 18.0851 25.6277 17.4322C25.4536 16.7794 25.547 16.0841 25.8871 15.5003C26.1083 15.1141 26.4285 14.7939 26.8147 14.5727V14.5727C28.0215 13.8668 28.4352 12.321 27.7422 11.1067V11.1067V11.0945Z" stroke="#B8C0CC" stroke-width="2" stroke-linecap="round" stroke-linejoin="round"/>
<circle cx="16.2334" cy="16.7817" r="3.51487" stroke="#B8C0CC" stroke-width="2" stroke-linecap="round" stroke-linejoin="round"/>
</svg>
