<svg width="42" height="43" viewBox="0 0 42 43" fill="none" xmlns="http://www.w3.org/2000/svg">
<path d="M14 14.4999H14.0175M7.9848 5.64014L5.1402 8.48474C4.53487 9.09007 4.23221 9.39273 4.01576 9.74594C3.82386 10.0591 3.68244 10.4005 3.59671 10.7576C3.5 11.1604 3.5 11.5885 3.5 12.4445L3.5 17.4303C3.5 18.2864 3.5 18.7144 3.59671 19.1172C3.68244 19.4744 3.82386 19.8158 4.01576 20.1289C4.23221 20.4821 4.53487 20.7848 5.1402 21.3901L18.5603 34.8102C20.6394 36.8893 21.6789 37.9289 22.8777 38.3184C23.9321 38.661 25.0679 38.661 26.1223 38.3184C27.3211 37.9289 28.3606 36.8893 30.4397 34.8102L34.3103 30.9396C36.3894 28.8605 37.4289 27.821 37.8184 26.6223C38.161 25.5678 38.161 24.432 37.8184 23.3776C37.4289 22.1789 36.3894 21.1393 34.3103 19.0602L20.8902 5.64014C20.2849 5.03481 19.9822 4.73215 19.629 4.5157C19.3158 4.3238 18.9744 4.18238 18.6173 4.09665C18.2145 3.99994 17.7865 3.99994 16.9304 3.99994L11.9446 3.99994C11.0885 3.99994 10.6605 3.99994 10.2577 4.09664C9.90056 4.18238 9.55916 4.3238 9.246 4.5157C8.89279 4.73214 8.59013 5.03481 7.9848 5.64014ZM14.875 14.4999C14.875 14.9832 14.4833 15.3749 14 15.3749C13.5168 15.3749 13.125 14.9832 13.125 14.4999C13.125 14.0167 13.5168 13.6249 14 13.6249C14.4833 13.6249 14.875 14.0167 14.875 14.4999Z" stroke="#B8C0CC" stroke-width="2" stroke-linecap="round" stroke-linejoin="round"/>
</svg>
