<svg width="45" height="47" viewBox="0 0 45 47" fill="none" xmlns="http://www.w3.org/2000/svg">
<g clip-path="url(#clip0_203_1088)">
<path d="M44.0042 4.60055C43.9176 4.41093 43.767 4.26333 43.5828 4.18739C43.3985 4.11144 43.1941 4.11277 43.0107 4.1911L39.4201 5.92915C39.2877 6.04561 39.1948 6.20532 39.1557 6.38371C39.1166 6.56209 39.1335 6.74926 39.2037 6.91641C39.2739 7.08355 39.3937 7.22141 39.5444 7.30875C39.6952 7.3961 39.8687 7.4281 40.0381 7.39981L43.6209 5.66176C43.7984 5.56924 43.9366 5.40842 44.0077 5.21158C44.0788 5.01473 44.0776 4.79645 44.0042 4.60055ZM38.2467 4.54205C38.4326 4.62112 38.6398 4.62112 38.8256 4.54205C39.0079 4.45194 39.1508 4.29037 39.2246 4.09083L40.2024 1.31663C40.2708 1.21283 40.3162 1.09375 40.335 0.968425C40.3539 0.843104 40.3458 0.714838 40.3113 0.593361C40.2769 0.471885 40.2169 0.360392 40.1361 0.267345C40.0553 0.174299 39.9557 0.102145 39.8449 0.0563597C39.734 0.0105747 39.6149 -0.00763774 39.4965 0.00310495C39.3781 0.0138476 39.2635 0.0532631 39.1615 0.118359C39.0595 0.183456 38.9727 0.272522 38.9077 0.378797C38.8428 0.485072 38.8013 0.605763 38.7865 0.731708L37.8087 3.54769C37.7568 3.742 37.7726 3.9498 37.8531 4.13262C37.9337 4.31544 38.0735 4.4609 38.2467 4.54205ZM43.8165 9.82306L41.235 8.78691C41.0632 8.76835 40.8906 8.81101 40.7439 8.90823C40.5972 9.00545 40.4847 9.15177 40.424 9.3244C40.3633 9.49703 40.3577 9.68626 40.4082 9.86261C40.4587 10.039 40.5623 10.1925 40.7031 10.2994L43.2845 11.3355C43.4727 11.4051 43.6785 11.3954 43.8602 11.3084C44.0419 11.2215 44.1857 11.0638 44.2624 10.8676C44.327 10.6656 44.3168 10.4448 44.2339 10.2506C44.151 10.0563 44.0016 9.90338 43.8165 9.82306Z" fill="url(#paint0_linear_203_1088)"/>
<path d="M37.8008 10.667C38.2483 10.2606 38.56 9.70968 38.6886 9.09743C38.8173 8.48518 38.756 7.84485 38.5139 7.27309C38.2719 6.70134 37.8623 6.22921 37.347 5.92798C36.8317 5.62675 36.2386 5.51278 35.6574 5.60327L33.8894 1.42526C33.8319 1.29833 33.7452 1.18903 33.6375 1.10753C33.5298 1.02602 33.4045 0.974968 33.2733 0.95912C33.1421 0.943273 33.0093 0.963146 32.8872 1.01689C32.7652 1.07063 32.6578 1.1565 32.5752 1.26649L31.0107 3.34714C29.4441 5.43925 27.4364 7.10572 25.1515 8.21035L19.8321 10.784C18.9866 11.1931 18.2737 11.8608 17.7834 12.7027C17.2931 13.5445 17.0475 14.5228 17.0777 15.5137C17.1078 16.5047 17.4123 17.4638 17.9527 18.2699C18.4931 19.076 19.2452 19.6929 20.1137 20.0425C21.2809 20.5011 22.5699 20.4531 23.7043 19.9088L24.9638 19.2988L28.1711 22.9838C28.469 23.3296 28.8613 23.5666 29.2923 23.6611C29.7233 23.7555 30.1712 23.7028 30.5726 23.5102L32.3797 22.6328C32.492 22.5802 32.5903 22.4983 32.6654 22.3946C32.7406 22.291 32.7902 22.1689 32.8099 22.0396C32.8298 21.9105 32.8211 21.7782 32.7844 21.6534C32.7477 21.5286 32.6841 21.4147 32.5987 21.3209L28.8438 17.427L29.0628 17.3184C31.3153 16.2429 33.7713 15.7423 36.2362 15.8561L38.7864 15.9814C38.9045 15.9814 39.0211 15.9564 39.1306 15.9062C39.2598 15.8482 39.3691 15.749 39.4435 15.6221C39.5137 15.5068 39.5561 15.3748 39.567 15.2378C39.5779 15.1008 39.557 14.963 39.5061 14.8367L37.8008 10.667ZM37.1437 7.9346C37.2688 8.24962 37.2688 8.60559 37.1437 8.92061C37.1437 8.97075 37.1045 9.00417 37.0889 9.04595L36.3066 7.21598C36.4884 7.25906 36.6585 7.34629 36.8037 7.47091C36.9488 7.59553 37.0652 7.7542 37.1437 7.9346ZM23.1254 18.4465C22.7468 18.6322 22.3372 18.7352 21.9208 18.7495C21.5044 18.7639 21.0895 18.6893 20.7004 18.53C20.1139 18.317 19.5997 17.9227 19.2232 17.3971C18.8466 16.8716 18.6245 16.2385 18.5852 15.5781C18.5458 14.9176 18.6909 14.2595 19.002 13.6872C19.3131 13.1149 19.7762 12.6541 20.3328 12.3633C20.3416 13.6262 20.6921 14.8595 21.3419 15.9146C21.9793 16.8811 22.865 17.6298 23.8921 18.0705L23.1254 18.4465ZM30.8151 21.6468L30.0329 22.0312C29.9176 22.085 29.7896 22.0994 29.6664 22.0725C29.5431 22.0456 29.4307 21.9786 29.3445 21.8808L26.4657 18.5885L27.4279 18.1206L30.8151 21.6468ZM36.3692 14.235C33.7012 14.1004 31.0407 14.6356 28.6013 15.7976L28.5074 15.8394L27.2949 16.4243L25.9964 17.0594C25.3312 16.9776 24.6881 16.7543 24.105 16.4026C23.5219 16.051 23.0106 15.5782 22.6013 15.0122C21.9989 13.9988 21.7394 12.7957 21.866 11.6029L25.8243 9.68101C28.3216 8.47643 30.5188 6.66173 32.2389 4.38329L33.0211 3.33043L34.5387 6.8901L36.1658 10.7088L37.6834 14.2935L36.3692 14.235Z" fill="url(#paint1_linear_203_1088)"/>
<path d="M37.2688 17.7529C37.1661 17.7529 37.0644 17.7746 36.9695 17.8166C36.8746 17.8585 36.7883 17.9201 36.7157 17.9977C36.643 18.0753 36.5854 18.1674 36.5461 18.2688C36.5068 18.3702 36.4866 18.4788 36.4866 18.5885V28.5072C36.4845 28.7569 36.3907 28.9958 36.2254 29.1724C36.0601 29.349 35.8364 29.4492 35.6026 29.4514H2.95081C2.717 29.4492 2.49335 29.349 2.32801 29.1724C2.16268 28.9958 2.06889 28.7569 2.06685 28.5072V8.66994C2.06889 8.42019 2.16268 8.18129 2.32801 8.00468C2.49335 7.82807 2.717 7.72789 2.95081 7.72571H20.2076C20.3103 7.72571 20.4121 7.7041 20.507 7.6621C20.6019 7.62011 20.6881 7.55856 20.7607 7.48097C20.8334 7.40337 20.891 7.31126 20.9303 7.20988C20.9696 7.1085 20.9899 6.99984 20.9899 6.89011C20.9899 6.78037 20.9696 6.67172 20.9303 6.57034C20.891 6.46896 20.8334 6.37684 20.7607 6.29925C20.6881 6.22165 20.6019 6.1601 20.507 6.11811C20.4121 6.07612 20.3103 6.0545 20.2076 6.0545H2.95081C2.62927 6.0545 2.31088 6.12215 2.01381 6.25359C1.71675 6.38503 1.44683 6.57768 1.21947 6.82055C0.992103 7.06341 0.811748 7.35174 0.6887 7.66906C0.565651 7.98638 0.502319 8.32648 0.502319 8.66994V28.5072C0.502319 29.2008 0.760285 29.8661 1.21947 30.3566C1.67865 30.847 2.30143 31.1226 2.95081 31.1226H13.0186C13.641 31.1226 14.2379 31.3867 14.678 31.8568C15.1181 32.3269 15.3654 32.9646 15.3654 33.6294C15.3654 34.2942 15.1181 34.9319 14.678 35.402C14.2379 35.8721 13.641 36.1362 13.0186 36.1362C12.8111 36.1362 12.6121 36.2242 12.4654 36.381C12.3187 36.5377 12.2363 36.7502 12.2363 36.9718C12.2363 37.1934 12.3187 37.406 12.4654 37.5627C12.6121 37.7194 12.8111 37.8074 13.0186 37.8074H25.5348C25.7423 37.8074 25.9413 37.7194 26.088 37.5627C26.2347 37.406 26.3171 37.1934 26.3171 36.9718C26.3171 36.7502 26.2347 36.5377 26.088 36.381C25.9413 36.2242 25.7423 36.1362 25.5348 36.1362C24.9124 36.1362 24.3155 35.8721 23.8754 35.402C23.4353 34.9319 23.188 34.2942 23.188 33.6294C23.188 32.9646 23.4353 32.3269 23.8754 31.8568C24.3155 31.3867 24.9124 31.1226 25.5348 31.1226H35.6026C36.252 31.1226 36.8748 30.847 37.3339 30.3566C37.7931 29.8661 38.0511 29.2008 38.0511 28.5072V18.5885C38.0511 18.4788 38.0309 18.3702 37.9915 18.2688C37.9522 18.1674 37.8946 18.0753 37.822 17.9977C37.7493 17.9201 37.6631 17.8585 37.5682 17.8166C37.4733 17.7746 37.3716 17.7529 37.2688 17.7529ZM22.4058 36.1362H16.1476C16.6554 35.413 16.9299 34.5334 16.9299 33.6294C16.9299 32.7254 16.6554 31.8458 16.1476 31.1226H22.4058C21.898 31.8458 21.6235 32.7254 21.6235 33.6294C21.6235 34.5334 21.898 35.413 22.4058 36.1362ZM10.6718 42.4367L8.8491 46.8988H10.2806L10.5623 46.1217H12.1268L12.4084 46.8988H13.8634L12.0329 42.4367H10.6718ZM10.9456 45.0354L11.3524 43.9157L11.7591 45.0354H10.9456ZM20.982 42.704C20.5959 42.5202 20.1766 42.4289 19.7539 42.4367H17.7122V46.8988H19.7774C20.2011 46.9082 20.6212 46.8138 21.0055 46.623C21.3477 46.4612 21.6366 46.1934 21.8347 45.8543C22.0358 45.4963 22.1388 45.0852 22.132 44.6677C22.1409 44.25 22.0378 43.8383 21.8347 43.4812C21.6286 43.1378 21.3319 42.8674 20.982 42.704ZM20.4188 45.4448C20.2201 45.6361 19.9584 45.7353 19.6913 45.7206H19.0968V43.6065H19.6913C19.9584 43.5918 20.2201 43.691 20.4188 43.8823C20.6066 44.0928 20.702 44.3778 20.6848 44.6677C20.7028 44.9552 20.6066 45.2376 20.4188 45.4448ZM28.8908 44.3251C28.6362 44.2294 28.3745 44.1567 28.1085 44.1079C27.9271 44.076 27.749 44.0256 27.5765 43.9575C27.5336 43.9466 27.4952 43.9212 27.467 43.8851C27.4388 43.8489 27.4223 43.8039 27.4201 43.7569C27.4201 43.5731 27.6 43.4812 27.9599 43.4812C28.3679 43.4907 28.7678 43.6054 29.1254 43.8154L29.5479 42.7208C29.3195 42.5871 29.0746 42.4887 28.8204 42.4283C28.5427 42.365 28.2594 42.3342 27.9755 42.3364C27.6123 42.3226 27.2503 42.388 26.9116 42.5286C26.6461 42.6382 26.4154 42.8267 26.2467 43.0717C26.1043 43.2993 26.0281 43.5667 26.0277 43.8405C26.012 44.1179 26.0988 44.3911 26.2702 44.6009C26.4196 44.7855 26.6112 44.9268 26.8256 45.0103C27.0806 45.1089 27.3419 45.1866 27.6078 45.2443C27.7901 45.2836 27.9708 45.3337 28.1476 45.3947C28.2571 45.4448 28.3119 45.5117 28.3119 45.6119C28.3116 45.6517 28.2992 45.6903 28.2767 45.722C28.2541 45.7536 28.2225 45.7766 28.1867 45.7874C28.0544 45.8402 27.9132 45.863 27.7721 45.8543C27.5309 45.8504 27.2914 45.811 27.0603 45.7373C26.8278 45.6705 26.6044 45.5722 26.3953 45.4448L25.9416 46.5395C26.1841 46.6941 26.4485 46.8069 26.7239 46.8737C27.0548 46.9573 27.3935 46.999 27.733 46.999C28.0992 47.0095 28.4636 46.9413 28.8047 46.7985C29.0668 46.6863 29.2943 46.4982 29.4618 46.2554C29.6077 46.0327 29.6843 45.7667 29.6808 45.495C29.696 45.2149 29.6091 44.9394 29.4383 44.7262C29.2886 44.5476 29.1007 44.41 28.8908 44.3251Z" fill="#E3E3E3"/>
</g>
<defs>
<linearGradient id="paint0_linear_203_1088" x1="37.7787" y1="5.69078" x2="44.3044" y2="5.69078" gradientUnits="userSpaceOnUse">
<stop stop-color="#B5BBF9"/>
<stop offset="1" stop-color="#C5B7EE"/>
</linearGradient>
<linearGradient id="paint1_linear_203_1088" x1="17.0752" y1="12.3303" x2="39.5698" y2="12.3303" gradientUnits="userSpaceOnUse">
<stop stop-color="#B5BBF9"/>
<stop offset="1" stop-color="#C5B7EE"/>
</linearGradient>
<clipPath id="clip0_203_1088">
<rect width="44" height="47" fill="white" transform="translate(0.5 6.10352e-05)"/>
</clipPath>
</defs>
</svg>
