<svg width="43" height="43" viewBox="0 0 43 43" fill="none" xmlns="http://www.w3.org/2000/svg">
<path d="M26.9112 2.55452C27.317 2.55452 27.7188 2.63444 28.0937 2.78973C28.4686 2.94502 28.8092 3.17263 29.0962 3.45957C29.3831 3.7465 29.6107 4.08715 29.766 4.46205C29.9213 4.83695 30.0012 5.23877 30.0012 5.64456V6.88049C30.0012 7.09208 29.9799 7.29899 29.9395 7.49824H34.945C36.9928 7.49824 38.6532 9.15864 38.6532 11.2065V33.4553C38.6532 35.5032 36.9928 37.1636 34.945 37.1636H31.2367V39.6354C31.2367 39.9632 31.1065 40.2776 30.8747 40.5094C30.643 40.7411 30.3286 40.8713 30.0008 40.8713C29.673 40.8713 29.3587 40.7411 29.1269 40.5094C28.8951 40.2776 28.7649 39.9632 28.7649 39.6354V37.1631H13.932V39.6354C13.932 39.9632 13.8018 40.2776 13.57 40.5094C13.3382 40.7411 13.0239 40.8713 12.6961 40.8713C12.3683 40.8713 12.0539 40.7411 11.8221 40.5094C11.5904 40.2776 11.4601 39.9632 11.4601 39.6354V37.1631H7.75192C6.76859 37.1629 5.82561 36.7721 5.13037 36.0767C4.43512 35.3813 4.04456 34.4382 4.04456 33.4549V11.2073C4.04456 9.15949 5.70495 7.49909 7.75277 7.49909H12.7587C12.7175 7.29561 12.6968 7.08852 12.6969 6.88091V5.64498C12.6969 5.23919 12.7767 4.83736 12.932 4.46244C13.0872 4.08752 13.3148 3.74685 13.6017 3.45987C13.8886 3.17289 14.2292 2.94524 14.6041 2.78989C14.9789 2.63455 15.3807 2.55457 15.7865 2.55452H26.9112ZM34.945 9.97095H7.75277C7.44994 9.97095 7.15764 10.0821 6.93132 10.2833C6.70499 10.4845 6.56039 10.7618 6.52493 11.0626L6.51642 11.2069V33.4549C6.51654 33.7577 6.62779 34.05 6.82908 34.2762C7.03037 34.5025 7.30769 34.647 7.60845 34.6823L7.75277 34.6908H34.945C35.2479 34.6908 35.5402 34.5796 35.7665 34.3783C35.9929 34.177 36.1374 33.8996 36.1728 33.5988L36.1813 33.4549V11.2069C36.1813 10.904 36.0701 10.6116 35.8688 10.3853C35.6675 10.159 35.3901 10.0144 35.0893 9.97904L34.9454 9.97053L34.945 9.97095ZM26.9112 5.02595H15.7865C15.4834 5.02595 15.2309 5.24478 15.1786 5.53301L15.1688 5.64413V6.88006C15.1688 7.18362 15.3876 7.43608 15.6754 7.48845L15.787 7.49824H26.9112C27.2143 7.49824 27.4668 7.27941 27.5191 6.99161L27.5289 6.88006V5.64413C27.5289 5.34058 27.3105 5.08854 27.0223 5.03617L26.9112 5.02595Z" fill="#E3E3E3"/>
<path d="M15.1688 16.1506C15.9927 16.1506 16.4047 16.5626 16.4047 17.3865V29.7471C16.4047 30.5711 15.9927 30.9831 15.1688 30.9831C14.3448 30.9831 13.9329 30.5711 13.9329 29.7471V17.3865C13.9329 16.5626 14.3448 16.1506 15.1688 16.1506Z" fill="url(#paint0_linear_203_1114)"/>
<path d="M27.5289 16.1506C28.3529 16.1506 28.7648 16.5626 28.7648 17.3865V29.7471C28.7648 30.5711 28.3529 30.9831 27.5289 30.9831C26.7049 30.9831 26.293 30.5711 26.293 29.7471V17.3865C26.293 16.5626 26.7049 16.1506 27.5289 16.1506Z" fill="url(#paint1_linear_203_1114)"/>
<defs>
<linearGradient id="paint0_linear_203_1114" x1="13.9329" y1="23.5668" x2="16.4047" y2="23.5668" gradientUnits="userSpaceOnUse">
<stop stop-color="#B5BBF9"/>
<stop offset="1" stop-color="#C5B7EE"/>
</linearGradient>
<linearGradient id="paint1_linear_203_1114" x1="26.293" y1="23.5668" x2="28.7648" y2="23.5668" gradientUnits="userSpaceOnUse">
<stop stop-color="#B5BBF9"/>
<stop offset="1" stop-color="#C5B7EE"/>
</linearGradient>
</defs>
</svg>
