<svg width="41" height="41" viewBox="0 0 41 41" fill="none" xmlns="http://www.w3.org/2000/svg">
<path d="M32.882 12.8331C33.579 12.8331 34.153 13.5301 34.153 14.3706V14.5141L34.1735 14.6576L35.834 34.6451C35.793 35.4241 35.219 36.0801 34.563 36.0801H6.47795C5.82195 36.0801 5.24795 35.4241 5.20695 34.6451L6.86745 14.6576L6.88795 14.5141V14.3706C6.88795 13.5301 7.48245 12.8331 8.15895 12.8331H32.882ZM31.939 10.4551H9.06095C6.62145 10.4551 4.61245 12.5666 4.61245 15.1496L3.07495 33.8046C3.07495 36.3876 5.08395 38.4991 7.52345 38.4991H33.4765C35.916 38.4991 37.925 36.3876 37.925 33.8046L36.3875 15.1496C36.3875 12.5666 34.3785 10.4551 31.939 10.4551Z" fill="#E3E3E3"/>
<path d="M27.8185 18.4706C27.1625 18.4706 26.609 17.9376 26.609 17.2611V12.6076C26.609 8.85607 24.9895 4.85857 20.418 4.85857C18.4705 4.85857 16.933 5.57607 15.8875 7.01107C14.883 8.36407 14.309 10.3526 14.309 12.6076V17.2611C14.309 17.9171 13.776 18.4706 13.0995 18.4706C12.4435 18.4706 11.89 17.9376 11.89 17.2611V12.6076C11.89 9.79907 12.6075 7.35957 13.94 5.55557C15.498 3.52607 17.7325 2.46007 20.4385 2.46007C23.1445 2.46007 25.3995 3.52607 26.937 5.57607C28.3105 7.38007 29.028 9.81957 29.028 12.6281V17.2816C29.028 17.9376 28.495 18.4706 27.8185 18.4706Z" fill="#E3E3E3"/>
<path d="M17.8245 32.3045C16.7995 32.3045 16 31.4025 16 30.234V21.0705C16 19.902 16.7995 19 17.804 19C18.132 19 18.4805 19.1025 18.7675 19.3075L25.7785 23.8995C26.3525 24.2685 26.6805 24.9245 26.6805 25.642C26.6805 26.38 26.332 27.0565 25.7375 27.446L18.788 32.038C18.5215 32.1815 18.173 32.284 17.8245 32.3045ZM18.173 21.214C18.05 21.214 17.886 21.419 17.886 21.7265V29.66C17.886 29.9675 18.0295 30.1725 18.173 30.1725C18.2345 30.1725 18.2755 30.152 18.3165 30.111L24.3435 26.134C24.5075 26.011 24.5895 25.847 24.5895 25.642C24.5895 25.4575 24.5075 25.2935 24.3845 25.2115L18.3165 21.2345C18.2755 21.255 18.2345 21.2345 18.173 21.214Z" fill="url(#paint0_linear_203_1095)"/>
<defs>
<linearGradient id="paint0_linear_203_1095" x1="16" y1="25.6522" x2="26.6805" y2="25.6522" gradientUnits="userSpaceOnUse">
<stop stop-color="#B5BBF9"/>
<stop offset="1" stop-color="#C5B7EE"/>
</linearGradient>
</defs>
</svg>
