<svg width="45" height="45" viewBox="0 0 45 45" fill="none" xmlns="http://www.w3.org/2000/svg">
<path d="M33.39 41.7826C32.04 41.7826 30.195 41.1076 29.025 39.8251C28.1925 38.9026 27.3375 37.2826 28.035 34.7851C28.7775 32.2201 30.3975 30.3301 31.1625 29.5651L28.035 15.9751C27.9225 15.4801 28.215 15.0076 28.71 14.8951C29.1825 14.7826 29.6775 15.0751 29.79 15.5701L35.37 39.8251C35.4825 40.3201 35.3475 40.7926 35.0325 41.1751C34.785 41.4676 34.425 41.6701 34.02 41.7601C33.8175 41.7826 33.615 41.7826 33.39 41.7826ZM31.6575 31.7476C31.005 32.5801 30.195 33.8176 29.7675 35.3026C29.385 36.6526 29.5875 37.7776 30.3525 38.6326C31.2975 39.6901 32.8725 40.0501 33.5475 39.9826L31.6575 31.7476Z" fill="url(#paint0_linear_203_1106)"/>
<path d="M42.93 32.6476C42.8175 32.6476 42.7275 32.6476 42.615 32.6251L18.36 27.0226C17.865 26.9101 17.5725 26.4376 17.685 25.9426C17.7975 25.4476 18.27 25.1551 18.765 25.2676L32.355 28.3951C33.12 27.6526 35.01 26.0101 37.575 25.2676C40.05 24.5476 41.67 25.4026 42.615 26.2576C44.1 27.6076 44.775 29.8801 44.5275 31.2076C44.4375 31.6351 44.235 31.9951 43.9425 32.2426C43.65 32.5126 43.29 32.6476 42.93 32.6476ZM34.515 28.8901L42.75 30.7801C42.8175 30.1276 42.435 28.5526 41.3775 27.5851C40.5225 26.7976 39.3975 26.6176 38.0475 27.0001C36.585 27.4501 35.3475 28.2376 34.515 28.8901Z" fill="url(#paint1_linear_203_1106)"/>
<path d="M22.5 36.5626H0.675049C0.360049 36.5626 0.112549 36.3151 0.112549 36.0001V9.00006C0.112549 8.68506 0.360049 8.43756 0.675049 8.43756H40.5C40.815 8.43756 41.0625 8.68506 41.0625 9.00006V22.5001C41.0625 22.8151 40.815 23.0626 40.5 23.0626C40.185 23.0626 39.9375 22.8151 39.9375 22.5001V9.56256H1.23755V35.4376H22.5C22.815 35.4376 23.0625 35.6851 23.0625 36.0001C23.0625 36.3151 22.815 36.5626 22.5 36.5626Z" fill="#E3E3E3"/>
<path d="M0.675049 12.9376H40.5V14.0626H0.675049V12.9376ZM0.675049 30.9376H22.5V32.0626H0.675049V30.9376Z" fill="#E3E3E3"/>
<path d="M6.1875 9.00006H7.3125V13.5001H6.1875V9.00006ZM12.9375 9.00006H14.0625V13.5001H12.9375V9.00006ZM19.6875 9.00006H20.8125V13.5001H19.6875V9.00006ZM26.4375 9.00006H27.5625V13.5001H26.4375V9.00006ZM33.1875 9.00006H34.3125V13.5001H33.1875V9.00006ZM6.1875 31.5001H7.3125V36.0001H6.1875V31.5001ZM12.9375 31.5001H14.0625V36.0001H12.9375V31.5001ZM19.6875 31.5001H20.8125V36.0001H19.6875V31.5001Z" fill="#E3E3E3"/>
<defs>
<linearGradient id="paint0_linear_203_1106" x1="27.7781" y1="28.3268" x2="35.4092" y2="28.3268" gradientUnits="userSpaceOnUse">
<stop stop-color="#B5BBF9"/>
<stop offset="1" stop-color="#C5B7EE"/>
</linearGradient>
<linearGradient id="paint1_linear_203_1106" x1="17.661" y1="28.8226" x2="44.5776" y2="28.8226" gradientUnits="userSpaceOnUse">
<stop stop-color="#B5BBF9"/>
<stop offset="1" stop-color="#C5B7EE"/>
</linearGradient>
</defs>
</svg>
