<svg width="41" height="41" viewBox="0 0 41 41" fill="none" xmlns="http://www.w3.org/2000/svg">
<g clip-path="url(#clip0_203_1101)">
<path d="M39.2359 14.2422C39.0562 14.0175 38.854 13.7928 38.6293 13.6356L21.5778 1.4816C20.5669 0.717767 19.1964 0.695301 18.1855 1.4142L1.31371 12.9391C0.639735 13.4109 0.19042 14.1074 0.0556256 14.9161C-0.101635 15.7249 0.0780914 16.5337 0.549872 17.2076C0.729598 17.4997 1.02165 17.7468 1.31371 17.9715L19.9153 30.4624L33.3499 21.4312V28.9123C33.1252 29.4739 32.631 29.9232 32.0244 30.1254L31.8447 30.1928L21.1285 37.9884C20.7466 38.258 20.2748 38.4153 19.848 38.4153C19.3986 38.4153 18.9943 38.2805 18.6123 38.0334L5.85179 29.3391C5.24521 28.8898 4.88576 28.1934 4.88576 27.452V26.8904C4.88576 26.7106 4.97563 26.5309 5.15535 26.4186C5.33508 26.3063 5.49234 26.3287 5.6496 26.4186L19.2863 35.6969C19.7806 36.0564 20.477 35.8991 20.8364 35.4049C21.1959 34.9106 21.0386 34.2142 20.5444 33.8548L6.88521 24.5764C6.03152 24.0148 4.93069 23.9698 4.03206 24.4641C3.13343 24.9583 2.57179 25.9243 2.59426 26.9353V27.4295C2.59426 28.9123 3.31316 30.3052 4.50384 31.1364L17.3318 39.8756C18.0956 40.3698 18.9493 40.6619 19.8255 40.6619C20.7466 40.6619 21.6452 40.3698 22.409 39.8531L32.8781 32.2148C34.1137 31.7205 35.0797 30.7095 35.4841 29.4739L35.5515 29.2942V19.9934L38.517 18.0389L38.5395 18.0164C39.1236 17.612 39.528 17.0054 39.6627 16.2865C39.82 15.5676 39.6403 14.8263 39.2359 14.2422ZM37.4836 15.8822C37.4611 15.9495 37.4162 16.0619 37.3038 16.1293L34.0688 18.2635C33.9789 18.286 33.889 18.3309 33.8217 18.3983L19.8929 27.7441L2.59426 16.1293C2.50439 16.0619 2.437 15.9945 2.39206 15.9271C2.25727 15.7474 2.21234 15.5227 2.25727 15.3205C2.3022 15.1183 2.437 14.9161 2.59426 14.8038L19.4436 3.2564C19.6907 3.07667 19.9827 3.09914 20.2299 3.27886L37.3263 15.4553L37.4162 15.5452C37.506 15.7024 37.506 15.8148 37.4836 15.8822Z" fill="#E3E3E3"/>
<path d="M19.4443 18.8738V9.02743L26.3579 13.9438L19.4443 18.8738Z" stroke="url(#paint0_linear_203_1101)" stroke-width="2"/>
</g>
<defs>
<linearGradient id="paint0_linear_203_1101" x1="18.4443" y1="13.9492" x2="27.6638" y2="13.9492" gradientUnits="userSpaceOnUse">
<stop stop-color="#B5BBF9"/>
<stop offset="1" stop-color="#C5B7EE"/>
</linearGradient>
<clipPath id="clip0_203_1101">
<rect width="41" height="41" fill="white"/>
</clipPath>
</defs>
</svg>
